<svg width="284" height="939" viewBox="0 0 284 939" fill="none" xmlns="http://www.w3.org/2000/svg">
<path d="M70.58 42.14L70.72 60.06C88.22 61.74 113.7 61.74 130.78 60.06V42C115.8 43.82 87.8 44.52 70.58 42.14ZM81.78 101.92L65.82 100.52C64.14 107.66 63.3 113.12 63.3 118.72C63.3 133 74.92 141.68 99 141.68C114.82 141.68 126.16 140.7 135.26 138.88L134.84 119.98C122.66 122.64 112.3 123.76 99.84 123.76C85.56 123.76 80.1 119.98 80.1 113.68C80.1 110.04 80.66 106.68 81.78 101.92ZM49.02 32.76L29.42 31.22C29.28 35.7 28.58 41.02 28.02 44.8C26.48 55.72 22.28 79.24 22.28 100.38C22.28 119.42 24.94 136.5 27.74 146.02L43.84 145.04C43.7 143.08 43.7 140.7 43.56 139.16C43.56 137.76 43.98 134.68 44.4 132.58C45.8 125.16 50.42 110.04 54.48 98.28L45.8 91.42C43.7 96.18 41.46 100.94 39.36 105.7C38.94 102.9 38.8 99.4 38.8 96.6C38.8 82.6 43.7 54.6 45.66 45.36C46.22 42.84 48.04 35.7 49.02 32.76ZM87.66 195.86H66.66C67.5 199.22 67.92 205.24 68.06 212.24C68.2 218.26 68.34 226.52 68.34 234.92C68.34 248.22 70.02 276.5 70.02 286.3C70.02 295.54 66.66 299.6 57.7 299.6C47.9 299.6 40.9 296.94 40.9 290.22C40.9 284.06 47.48 280.42 58.4 280.42C83.74 280.42 106 295.54 119.86 309.54L130.64 292.74C116.36 279.58 90.18 264.88 60.92 264.88C35.3 264.88 22.7 276.36 22.7 291.06C22.7 309.96 39.08 316.54 59.24 316.54C82.62 316.54 89.06 304.78 89.06 292.32C89.06 280.56 86.4 250.46 86.4 234.92C86.4 226.94 86.26 218.96 86.4 212.24C86.68 206.78 87.1 199.92 87.66 195.86ZM77.02 222.6V239.12C85.7 239.12 110.34 238.42 126.16 237.02L125.46 220.36C109.78 222.04 85.28 222.6 77.02 222.6ZM103.76 430.22C103.76 452.2 81.5 463.54 46.78 467.46L56.72 484.96C95.64 479.5 123.5 461.02 123.5 430.92C123.5 409.08 107.96 396.48 85.84 396.48C69.32 396.48 53.64 400.54 43.42 402.78C38.8 403.76 32.92 404.88 28.16 405.16L33.48 425.32C37.4 423.64 43 421.54 47.06 420.28C54.06 418.18 68.06 413.56 83.46 413.56C96.62 413.56 103.76 420.98 103.76 430.22ZM48.74 363.02L46.08 379.82C62.18 382.62 92.56 385.42 108.94 386.54L111.6 369.32C96.9 369.32 65.12 366.52 48.74 363.02ZM38.38 542.36V560.84C49.86 561.68 62.04 562.38 76.6 562.38C90.04 562.38 107.26 561.54 117.06 560.7V542.08C106.42 543.2 90.32 544.04 76.6 544.04C61.76 544.04 48.74 543.48 38.38 542.36ZM50.14 601.58L31.8 599.9C30.82 605.22 29 612.08 29 620.06C29 639.38 45.24 650.02 77.16 650.02C96.76 650.02 113.56 648.2 125.88 645.4L125.74 625.66C113.28 629.16 95.36 631.26 76.6 631.26C56.44 631.26 47.76 624.68 47.76 615.86C47.76 611.1 48.88 606.62 50.14 601.58ZM42.3 704.9L43.14 722.82C47.48 722.4 52.24 721.84 55.6 721.56C61.34 721 78.7 720.16 84.44 719.74C75.76 727.58 57.42 743.4 44.96 751.66C37.68 752.5 27.88 753.62 20.46 754.46L22 771.4C36.14 768.88 51.68 766.78 64.56 765.8C59.38 770.56 54.34 779.24 54.34 787.92C54.34 811.16 75.2 822.08 111.18 820.54L114.82 802.06C109.64 802.48 101.38 802.62 93.54 801.78C80.94 800.38 72.26 796.04 72.26 784.98C72.26 773.5 83.04 764.4 95.78 762.58C104.32 761.46 118.46 761.46 131.9 762.3L131.76 745.78C114.82 745.78 91.58 747.18 72.82 749.14C82.34 741.58 96.06 730.1 106.14 722.12C108.94 719.74 114.26 716.24 117.2 714.42L106.14 701.54C104.18 702.1 100.96 702.8 96.34 703.22C87.8 704.2 61.62 705.46 55.6 705.46C50.84 705.46 46.78 705.32 42.3 704.9Z" fill="#B50D0D"/>
<path d="M62.58 42.14L62.72 60.06C80.22 61.74 105.7 61.74 122.78 60.06V42C107.8 43.82 79.8 44.52 62.58 42.14ZM73.78 101.92L57.82 100.52C56.14 107.66 55.3 113.12 55.3 118.72C55.3 133 66.92 141.68 91 141.68C106.82 141.68 118.16 140.7 127.26 138.88L126.84 119.98C114.66 122.64 104.3 123.76 91.84 123.76C77.56 123.76 72.1 119.98 72.1 113.68C72.1 110.04 72.66 106.68 73.78 101.92ZM41.02 32.76L21.42 31.22C21.28 35.7 20.58 41.02 20.02 44.8C18.48 55.72 14.28 79.24 14.28 100.38C14.28 119.42 16.94 136.5 19.74 146.02L35.84 145.04C35.7 143.08 35.7 140.7 35.56 139.16C35.56 137.76 35.98 134.68 36.4 132.58C37.8 125.16 42.42 110.04 46.48 98.28L37.8 91.42C35.7 96.18 33.46 100.94 31.36 105.7C30.94 102.9 30.8 99.4 30.8 96.6C30.8 82.6 35.7 54.6 37.66 45.36C38.22 42.84 40.04 35.7 41.02 32.76ZM79.66 195.86H58.66C59.5 199.22 59.92 205.24 60.06 212.24C60.2 218.26 60.34 226.52 60.34 234.92C60.34 248.22 62.02 276.5 62.02 286.3C62.02 295.54 58.66 299.6 49.7 299.6C39.9 299.6 32.9 296.94 32.9 290.22C32.9 284.06 39.48 280.42 50.4 280.42C75.74 280.42 98 295.54 111.86 309.54L122.64 292.74C108.36 279.58 82.18 264.88 52.92 264.88C27.3 264.88 14.7 276.36 14.7 291.06C14.7 309.96 31.08 316.54 51.24 316.54C74.62 316.54 81.06 304.78 81.06 292.32C81.06 280.56 78.4 250.46 78.4 234.92C78.4 226.94 78.26 218.96 78.4 212.24C78.68 206.78 79.1 199.92 79.66 195.86ZM69.02 222.6V239.12C77.7 239.12 102.34 238.42 118.16 237.02L117.46 220.36C101.78 222.04 77.28 222.6 69.02 222.6ZM95.76 430.22C95.76 452.2 73.5 463.54 38.78 467.46L48.72 484.96C87.64 479.5 115.5 461.02 115.5 430.92C115.5 409.08 99.96 396.48 77.84 396.48C61.32 396.48 45.64 400.54 35.42 402.78C30.8 403.76 24.92 404.88 20.16 405.16L25.48 425.32C29.4 423.64 35 421.54 39.06 420.28C46.06 418.18 60.06 413.56 75.46 413.56C88.62 413.56 95.76 420.98 95.76 430.22ZM40.74 363.02L38.08 379.82C54.18 382.62 84.56 385.42 100.94 386.54L103.6 369.32C88.9 369.32 57.12 366.52 40.74 363.02ZM30.38 542.36V560.84C41.86 561.68 54.04 562.38 68.6 562.38C82.04 562.38 99.26 561.54 109.06 560.7V542.08C98.42 543.2 82.32 544.04 68.6 544.04C53.76 544.04 40.74 543.48 30.38 542.36ZM42.14 601.58L23.8 599.9C22.82 605.22 21 612.08 21 620.06C21 639.38 37.24 650.02 69.16 650.02C88.76 650.02 105.56 648.2 117.88 645.4L117.74 625.66C105.28 629.16 87.36 631.26 68.6 631.26C48.44 631.26 39.76 624.68 39.76 615.86C39.76 611.1 40.88 606.62 42.14 601.58ZM34.3 704.9L35.14 722.82C39.48 722.4 44.24 721.84 47.6 721.56C53.34 721 70.7 720.16 76.44 719.74C67.76 727.58 49.42 743.4 36.96 751.66C29.68 752.5 19.88 753.62 12.46 754.46L14 771.4C28.14 768.88 43.68 766.78 56.56 765.8C51.38 770.56 46.34 779.24 46.34 787.92C46.34 811.16 67.2 822.08 103.18 820.54L106.82 802.06C101.64 802.48 93.38 802.62 85.54 801.78C72.94 800.38 64.26 796.04 64.26 784.98C64.26 773.5 75.04 764.4 87.78 762.58C96.32 761.46 110.46 761.46 123.9 762.3L123.76 745.78C106.82 745.78 83.58 747.18 64.82 749.14C74.34 741.58 88.06 730.1 98.14 722.12C100.94 719.74 106.26 716.24 109.2 714.42L98.14 701.54C96.18 702.1 92.96 702.8 88.34 703.22C79.8 704.2 53.62 705.46 47.6 705.46C42.84 705.46 38.78 705.32 34.3 704.9Z" fill="#051E02"/>
<path d="M214.589 355C215.603 351.693 216.109 347.213 216.109 341.56V312.44C216.109 307.053 215.603 302.573 214.589 299H229.949C228.989 302.573 228.509 306.893 228.509 311.96V321.72H263.469V311.96C263.469 306.733 262.989 302.413 262.029 299H277.389C276.429 302.413 275.949 306.893 275.949 312.44V341.56C275.949 347.427 276.429 351.907 277.389 355H262.029C262.989 351.267 263.469 346.947 263.469 342.04V332.12H228.509V342.04C228.509 347.587 228.989 351.907 229.949 355H214.589ZM238.261 465C239.221 461.907 239.701 457.427 239.701 451.56V422.44C239.701 416.893 239.221 412.413 238.261 409H253.621C252.661 412.413 252.181 416.893 252.181 422.44V451.56C252.181 457.107 252.661 461.587 253.621 465H238.261ZM238.384 575C239.344 571.533 239.824 567.053 239.824 561.56V529.88H225.904C221.21 529.88 217.584 530.333 215.024 531.24L217.504 519H274.544L277.024 531.24C274.304 530.333 270.677 529.88 266.144 529.88H252.304V561.56C252.304 567.32 252.784 571.8 253.744 575H238.384ZM208.517 685C210.97 681.427 213.637 676.947 216.517 671.56L231.717 642.44C233.957 637.96 235.477 633.48 236.277 629H255.877C256.89 634.12 258.33 638.573 260.197 642.36L275.557 671.56C278.117 676.573 280.757 681.053 283.477 685H267.797C267.477 682.813 266.277 679.853 264.197 676.12L261.877 671.88H230.117L227.797 676.2C225.557 680.947 224.357 683.88 224.197 685H208.517ZM234.757 662.36H257.237L249.797 648.04C248.57 645.373 247.423 642.44 246.357 639.24H245.637C244.41 642.707 243.237 645.667 242.117 648.12L234.757 662.36ZM271.434 796.12C268.607 796.12 266.234 795.64 264.314 794.68C262.394 793.667 260.954 792.387 259.994 790.84C259.034 789.293 258.207 787.587 257.514 785.72C256.874 783.853 256.18 781.987 255.434 780.12C254.687 778.2 253.78 776.467 252.714 774.92C251.647 773.373 250.047 772.12 247.914 771.16C245.78 770.147 243.14 769.64 239.994 769.64C235.674 769.64 232.367 770.04 230.074 770.84V781.24C230.074 787.213 230.527 791.8 231.434 795H216.074C217.087 791.693 217.594 787.213 217.594 781.56V752.44C217.594 746.787 217.087 742.307 216.074 739H231.434C230.527 742.467 230.074 746.68 230.074 751.64V760.52H241.914C247.567 760.52 251.914 759.427 254.954 757.24C258.047 755.053 259.594 751.907 259.594 747.8C259.594 744.44 258.687 741.507 256.874 739H270.794C272.287 741.613 273.034 744.573 273.034 747.88C273.034 753.693 271.007 757.96 266.954 760.68C262.954 763.347 256.874 764.68 248.714 764.68H245.514V765.48H246.714C249.38 765.48 251.727 765.8 253.754 766.44C255.834 767.027 257.487 767.827 258.714 768.84C259.994 769.8 261.087 770.893 261.994 772.12C262.954 773.293 263.78 774.493 264.474 775.72C265.22 776.893 265.94 777.987 266.634 779C267.327 779.96 268.154 780.76 269.114 781.4C270.127 781.987 271.274 782.28 272.554 782.28C274.74 782.28 276.367 781.88 277.434 781.08C278.5 780.28 279.514 778.947 280.474 777.08L280.954 791.56C280.047 792.893 278.74 793.987 277.034 794.84C275.327 795.693 273.46 796.12 271.434 796.12ZM208.517 905C210.97 901.427 213.637 896.947 216.517 891.56L231.717 862.44C233.957 857.96 235.477 853.48 236.277 849H255.877C256.89 854.12 258.33 858.573 260.197 862.36L275.557 891.56C278.117 896.573 280.757 901.053 283.477 905H267.797C267.477 902.813 266.277 899.853 264.197 896.12L261.877 891.88H230.117L227.797 896.2C225.557 900.947 224.357 903.88 224.197 905H208.517ZM234.757 882.36H257.237L249.797 868.04C248.57 865.373 247.423 862.44 246.357 859.24H245.637C244.41 862.707 243.237 865.667 242.117 868.12L234.757 882.36Z" fill="black"/>
</svg>
